# xmcd CD database file
#
# Track frame offsets:
#	182
#	2520
#	22870
#	30417
#	48935
#	68470
#	84615
#	93887
#	105155
#	121542
#	135782
#	144330
#	157432
#	169772
#	184375
#	197067
#
# Disc length: 2785 seconds
#
# Revision: 0
# Processed by: cddbd v1.5.2PL0 Copyright (c) Steve Scherf et al.
# Submitted via: CDex 1.51
#
DISCID=b50adf10
DTITLE=Ella Fitzgerald - The Best of Ella Fitzgerald
DYEAR=1992
DGENRE=Jazz
TTITLE0=A Tisket, A Tasket
TTITLE1=Flying Home
TTITLE2=Lemon Drop
TTITLE3=Oh Johnny
TTITLE4=Mr. Paganini
TTITLE5=How High the Moon
TTITLE6=Thou Swell
TTITLE7=Robin's Nest
TTITLE8=There's a Small Hotel
TTITLE9=I Want the Waiter with the Water
TTITLE10=Old Mother Hubbard
TTITLE11='Tain't What You Do
TTITLE12=As You Desire Me
TTITLE13=Starlit Hour
TTITLE14=Sing Song Swing
TTITLE15=Swing Out
EXTD=YEAR: 1992
EXTT0=
EXTT1=
EXTT2=
EXTT3=
EXTT4=
EXTT5=
EXTT6=
EXTT7=
EXTT8=
EXTT9=
EXTT10=
EXTT11=
EXTT12=
EXTT13=
EXTT14=
EXTT15=
PLAYORDER=
